<svg width="376" height="282" viewBox="0 0 376 282" fill="none" xmlns="http://www.w3.org/2000/svg">
<g filter="url(#filter0_d)">
<rect x="121.194" y="117.092" width="116.536" height="116.536" transform="rotate(-45 121.194 117.092)" fill="#959FFF"/>
</g>
<rect x="162.375" y="75.8704" width="82.3635" height="82.3635" fill="#B9C0FF"/>
<rect x="162.375" y="116.762" width="57.8297" height="57.8297" transform="rotate(-45 162.375 116.762)" fill="#E8EAFF"/>
<path d="M120.025 111.209L110.126 101.31L117.211 94.2243L118.172 95.186L112.176 101.182L115.641 104.647L119.558 100.73L120.506 101.677L116.589 105.595L120.152 109.158L126.205 103.106L127.167 104.067L120.025 111.209ZM128.966 102.268L127.693 103.541L126.378 94.589L118.034 93.4011L119.363 92.0717L126.194 93.1041L125.162 86.2734L126.434 85.0006L127.651 93.2879L136.631 94.6032L135.316 95.9184L127.835 94.7729L128.966 102.268ZM140.61 88.9267C141.223 88.3139 141.69 87.6115 142.01 86.8196C142.321 86.0182 142.453 85.2168 142.406 84.4154L143.849 84.4437C143.868 85.4431 143.684 86.4283 143.297 87.3994C142.901 88.3611 142.331 89.2143 141.586 89.9591C140.87 90.6757 140.063 91.2178 139.168 91.5855C138.282 91.9437 137.381 92.1276 136.467 92.137C135.543 92.137 134.638 91.9579 133.751 91.5996C132.856 91.2319 132.054 90.6945 131.347 89.9874C130.64 89.2803 130.107 88.4836 129.749 87.5974C129.381 86.7017 129.202 85.7966 129.212 84.8821C129.212 83.9581 129.391 83.053 129.749 82.1668C130.117 81.2711 130.659 80.465 131.375 79.7485C132.139 78.9848 133.007 78.4097 133.978 78.0232C134.949 77.6177 135.929 77.4292 136.919 77.4575L136.962 78.9424C136.141 78.8953 135.321 79.0367 134.501 79.3667C133.69 79.6872 132.983 80.1492 132.38 80.7526C131.814 81.3183 131.39 81.9594 131.107 82.6759C130.824 83.3736 130.687 84.0854 130.697 84.8114C130.697 85.5279 130.848 86.2445 131.149 86.961C131.441 87.6681 131.875 88.3092 132.45 88.8843C133.025 89.4594 133.671 89.8978 134.388 90.1995C135.095 90.4918 135.811 90.6427 136.537 90.6521C137.263 90.6427 137.98 90.5012 138.687 90.2278C139.394 89.9355 140.035 89.5019 140.61 88.9267ZM146.97 84.2644L137.07 74.3649L144.155 67.2797L145.117 68.2413L139.121 74.2376L142.586 77.7024L146.503 73.785L147.451 74.7326L143.533 78.6499L147.097 82.2138L153.15 76.1609L154.112 77.1226L146.97 84.2644ZM155.684 75.5498L145.785 65.6503L150.084 61.3511C151.046 60.3895 152.083 59.8803 153.195 59.8238C154.298 59.7578 155.279 60.1538 156.137 61.0117C156.995 61.8697 157.391 62.8596 157.325 63.9816C157.268 65.0941 156.764 66.1265 155.812 67.0787L152.601 70.289L156.773 74.4609L155.684 75.5498ZM150.975 62.4118L147.85 65.5372L151.654 69.3414L154.779 66.216C155.449 65.5466 155.812 64.8442 155.868 64.1088C155.915 63.364 155.647 62.6993 155.062 62.1148C154.477 61.5303 153.818 61.2663 153.082 61.3228C152.347 61.3794 151.644 61.7424 150.975 62.4118ZM154.93 58.4563L153.955 57.4805L162.199 49.2356L163.175 50.2114L159.597 53.7894L168.521 62.7131L167.432 63.802L158.508 54.8783L154.93 58.4563ZM173.431 57.8031L163.531 47.9036L164.62 46.8147L174.52 56.7142L173.431 57.8031ZM181.484 39.8504C182.191 40.5575 182.729 41.3589 183.096 42.2546C183.455 43.1408 183.634 44.0459 183.634 44.9699C183.634 45.875 183.455 46.7707 183.096 47.6569C182.738 48.5431 182.205 49.3398 181.498 50.0469C180.791 50.754 179.99 51.2914 179.094 51.6591C178.208 52.0174 177.308 52.2012 176.393 52.2107C175.478 52.2012 174.578 52.0174 173.692 51.6591C172.796 51.2914 171.995 50.754 171.288 50.0469C170.581 49.3398 170.048 48.5431 169.69 47.6569C169.322 46.7612 169.138 45.8608 169.138 44.9558C169.138 44.0318 169.317 43.1267 169.675 42.2405C170.043 41.3448 170.581 40.5434 171.288 39.8363C171.995 39.1292 172.791 38.5965 173.678 38.2382C174.564 37.88 175.464 37.7055 176.379 37.715C177.293 37.7055 178.198 37.8847 179.094 38.2524C179.98 38.6106 180.777 39.1433 181.484 39.8504ZM180.381 40.9535C179.806 40.3784 179.165 39.9447 178.458 39.6524C177.741 39.3508 177.025 39.1999 176.308 39.1999C175.592 39.181 174.885 39.313 174.187 39.5959C173.48 39.8693 172.848 40.2841 172.292 40.8404C171.726 41.4061 171.307 42.0425 171.033 42.7496C170.75 43.4473 170.614 44.1591 170.623 44.885C170.632 45.5921 170.788 46.304 171.09 47.0205C171.382 47.7276 171.816 48.3687 172.391 48.9438C172.966 49.5189 173.607 49.9526 174.314 50.2449C175.021 50.5372 175.733 50.6927 176.45 50.7116C177.176 50.721 177.892 50.589 178.599 50.3156C179.297 50.0328 179.929 49.6085 180.494 49.0428C181.05 48.4866 181.47 47.8596 181.753 47.1619C182.026 46.4548 182.154 45.743 182.135 45.0265C182.125 44.3005 181.974 43.584 181.682 42.8769C181.39 42.1697 180.956 41.5286 180.381 40.9535ZM178.24 33.1952L179.329 32.1063L193.315 34.1852L185.283 26.1525L186.315 25.1201L196.215 35.0196L195.253 35.9812L180.927 33.8175L189.172 42.0624L188.139 43.0947L178.24 33.1952Z" fill="#595959"/>
<path d="M170.96 122.376L165.02 116.436L165.674 115.783L168.329 118.439L171.783 114.985L169.127 112.329L169.78 111.676L175.72 117.616L175.067 118.269L172.368 115.571L168.915 119.024L171.613 121.723L170.96 122.376ZM179.3 109.013C180.092 109.805 180.502 110.662 180.53 111.584C180.558 112.495 180.199 113.324 179.452 114.07C178.7 114.823 177.868 115.185 176.958 115.156C176.047 115.128 175.193 114.715 174.395 113.918L170.967 110.489L171.62 109.836L175.048 113.264C175.654 113.869 176.304 114.192 177 114.231C177.69 114.265 178.307 114.011 178.85 113.468C179.393 112.925 179.647 112.308 179.614 111.618C179.574 110.922 179.252 110.272 178.646 109.666L175.218 106.238L175.872 105.585L179.3 109.013ZM177.06 104.396L177.714 103.743L186.106 104.99L181.286 100.171L181.905 99.5511L187.845 105.491L187.268 106.068L178.673 104.77L183.619 109.716L183 110.336L177.06 104.396ZM183.285 99.3423L182.7 98.7568L187.647 93.8099L188.232 94.3954L186.085 96.5421L191.44 101.896L190.786 102.55L185.432 97.1955L183.285 99.3423ZM194.386 98.9504L188.446 93.0107L192.697 88.7595L193.274 89.3365L189.676 92.9343L191.755 95.0132L194.106 92.6628L194.674 93.2313L192.324 95.5817L194.462 97.72L198.094 94.0883L198.671 94.6653L194.386 98.9504ZM199.614 93.7216L193.675 87.7819L196.22 85.2364C196.797 84.6594 197.422 84.3511 198.095 84.3115C198.763 84.2662 199.351 84.4981 199.86 85.0073C200.251 85.3976 200.471 85.8501 200.522 86.3649C200.579 86.874 200.468 87.3746 200.191 87.8668L204.162 89.1735L203.441 89.8948L199.614 88.6135L197.714 90.5142L200.268 93.0683L199.614 93.7216ZM196.763 85.8643L194.913 87.7141L197.162 89.9627L199.012 88.1129C199.408 87.7169 199.626 87.2955 199.665 86.8486C199.699 86.396 199.546 86 199.207 85.6606C198.868 85.3212 198.474 85.1713 198.028 85.2109C197.581 85.2505 197.159 85.4683 196.763 85.8643ZM203.522 87.7778L203.505 86.8954C204.133 86.9123 204.704 86.8331 205.219 86.6578C205.733 86.4711 206.183 86.1854 206.568 85.8008C207.032 85.3369 207.303 84.8448 207.382 84.3243C207.462 83.8039 207.332 83.374 206.992 83.0346C206.687 82.7291 206.344 82.6018 205.965 82.6527C205.592 82.698 205.123 82.9242 204.557 83.3315L203.564 84.0528C202.902 84.5336 202.314 84.7882 201.799 84.8165C201.279 84.8391 200.809 84.6411 200.391 84.2225C199.898 83.7304 199.692 83.1392 199.771 82.4491C199.85 81.7589 200.201 81.1027 200.823 80.4805C201.236 80.0675 201.714 79.7253 202.257 79.4538C202.8 79.1822 203.366 79.0069 203.954 78.9277L204.09 79.8102C203.524 79.8893 203.013 80.0336 202.554 80.2429C202.096 80.4522 201.697 80.7266 201.358 81.066C200.934 81.4902 200.688 81.9343 200.62 82.3982C200.552 82.8507 200.671 83.2297 200.976 83.5352C201.253 83.8124 201.559 83.9312 201.892 83.8916C202.226 83.852 202.642 83.6512 203.14 83.2891L204.124 82.5764C204.876 82.039 205.53 81.7533 206.084 81.7193C206.644 81.6797 207.153 81.889 207.612 82.3472C207.872 82.6075 208.056 82.9044 208.163 83.2382C208.271 83.5606 208.302 83.9029 208.256 84.2649C208.211 84.6156 208.092 84.9777 207.9 85.351C207.708 85.7131 207.445 86.061 207.111 86.3947C206.641 86.8642 206.095 87.2235 205.473 87.4724C204.851 87.7099 204.2 87.8118 203.522 87.7778Z" fill="#595959"/>
<path d="M46.8294 211.232H49.6774V228.064L61.4214 211.232H64.2694V232H61.4214V214.88L49.6774 232H46.8294V211.232ZM69.7304 216.512H72.6104V222.944H80.2264V216.512H83.1064V232H80.2264V225.056H72.6104V232H69.7304V216.512ZM92.0094 218.624H86.5694V216.512H100.297V218.624H94.8894V232H92.0094V218.624ZM110.29 232.32C105.554 232.32 103.186 230.741 103.186 227.584V221.472C103.186 219.595 103.719 218.251 104.786 217.44C105.874 216.608 107.623 216.192 110.034 216.192C112.316 216.192 113.959 216.587 114.962 217.376C115.986 218.165 116.498 219.531 116.498 221.472V224.896H106.098V227.232C106.098 228.299 106.471 229.067 107.218 229.536C107.964 230.005 109.116 230.24 110.674 230.24C112.146 230.24 113.884 229.984 115.89 229.472V231.68C113.927 232.107 112.06 232.32 110.29 232.32ZM113.618 223.008V220.576C113.618 219.637 113.33 218.997 112.754 218.656C112.199 218.293 111.239 218.112 109.874 218.112C108.551 218.112 107.591 218.293 106.994 218.656C106.396 218.997 106.098 219.637 106.098 220.576V223.008H113.618ZM120.887 216.512H123.767V222.944H131.383V216.512H134.263V232H131.383V225.056H123.767V232H120.887V216.512ZM145.502 232.32C144.435 232.32 143.656 232.299 143.166 232.256C142.696 232.213 142.152 232.107 141.534 231.936C140.872 231.765 140.36 231.509 139.998 231.168C139.635 230.827 139.326 230.325 139.07 229.664C138.814 229.024 138.686 228.224 138.686 227.264V221.568C138.686 219.84 139.016 218.603 139.678 217.856C140.04 217.429 140.403 217.109 140.766 216.896C141.15 216.661 141.64 216.501 142.238 216.416C142.835 216.331 143.368 216.277 143.838 216.256C144.307 216.213 144.968 216.192 145.822 216.192C147.294 216.192 148.766 216.352 150.238 216.672V218.784C148.531 218.357 146.942 218.144 145.47 218.144C144.36 218.144 143.539 218.229 143.006 218.4C142.494 218.549 142.131 218.837 141.918 219.264C141.726 219.669 141.63 220.299 141.63 221.152V227.488C141.63 228.277 141.736 228.864 141.95 229.248C142.184 229.632 142.59 229.909 143.166 230.08C143.763 230.229 144.638 230.304 145.79 230.304C147.347 230.304 148.904 230.101 150.462 229.696V231.872C149.011 232.171 147.358 232.32 145.502 232.32ZM167.929 216.512V232H165.049V220.576L156.985 232H154.105V216.512H156.985V228.32L165.209 216.512H167.929ZM173.11 216.512H179.894C181.281 216.512 182.39 216.597 183.222 216.768C184.054 216.917 184.662 217.184 185.046 217.568C185.409 217.931 185.643 218.304 185.75 218.688C185.857 219.072 185.91 219.605 185.91 220.288V220.832C185.91 221.664 185.697 222.283 185.27 222.688C184.843 223.093 184.129 223.403 183.126 223.616V223.744C185.601 224.171 186.838 225.248 186.838 226.976V227.904C186.838 228.949 186.625 229.771 186.198 230.368C185.793 230.944 185.11 231.36 184.15 231.616C183.19 231.872 181.846 232 180.118 232H173.11V216.512ZM180.15 223.04C181.003 223.04 181.643 222.976 182.07 222.848C182.497 222.699 182.785 222.475 182.934 222.176C183.083 221.856 183.158 221.376 183.158 220.736V220.544C183.158 219.968 183.073 219.541 182.902 219.264C182.753 218.987 182.454 218.795 182.006 218.688C181.579 218.56 180.929 218.496 180.054 218.496H175.99V223.04H180.15ZM180.278 229.92C181.281 229.92 182.038 229.856 182.55 229.728C183.062 229.6 183.414 229.397 183.606 229.12C183.798 228.821 183.894 228.384 183.894 227.808V226.784C183.894 226.251 183.67 225.803 183.222 225.44C182.753 225.099 181.825 224.928 180.438 224.928H175.99V229.92H180.278ZM191.262 216.512H194.142V222.944H201.758V216.512H204.638V232H201.758V225.056H194.142V232H191.262V216.512ZM209.637 216.512H212.581V222.112H215.589C216.911 222.112 217.957 222.208 218.725 222.4C219.514 222.592 220.09 222.933 220.453 223.424C220.815 223.893 220.997 224.565 220.997 225.44V228.64C220.997 230.88 219.109 232 215.333 232H209.637V216.512ZM223.461 216.512H226.341V232H223.461V216.512ZM215.141 230.144C215.759 230.144 216.399 230.059 217.061 229.888C217.807 229.696 218.181 229.152 218.181 228.256V226.304C218.181 225.685 218.095 225.216 217.925 224.896C217.775 224.576 217.487 224.352 217.061 224.224C216.655 224.096 216.037 224.032 215.205 224.032H212.549V230.144H215.141ZM237.852 232.32C233.116 232.32 230.748 230.741 230.748 227.584V221.472C230.748 219.595 231.281 218.251 232.348 217.44C233.436 216.608 235.185 216.192 237.596 216.192C239.879 216.192 241.521 216.587 242.524 217.376C243.548 218.165 244.06 219.531 244.06 221.472V224.896H233.66V227.232C233.66 228.299 234.033 229.067 234.78 229.536C235.527 230.005 236.679 230.24 238.236 230.24C239.708 230.24 241.447 229.984 243.452 229.472V231.68C241.489 232.107 239.623 232.32 237.852 232.32ZM241.18 223.008V220.576C241.18 219.637 240.892 218.997 240.316 218.656C239.761 218.293 238.801 218.112 237.436 218.112C236.113 218.112 235.153 218.293 234.556 218.656C233.959 218.997 233.66 219.637 233.66 220.576V223.008H241.18ZM263.76 221.12C264.912 221.419 265.915 221.92 266.768 222.624C267.621 223.328 268.368 224.288 269.008 225.504L272.4 232H269.296L266.256 226.368C265.659 225.28 265.051 224.459 264.432 223.904C263.813 223.328 263.088 222.933 262.256 222.72C261.445 222.485 260.411 222.368 259.152 222.368V232H256.016V211.232H259.152V220.192C260.432 220.192 261.424 220.075 262.128 219.84C262.832 219.584 263.472 219.04 264.048 218.208L269.008 211.232H272.4L266.48 219.008C265.691 220.032 264.784 220.736 263.76 221.12ZM278.91 232.224L272.926 216.512H276.062L280.382 229.152H280.446L284.35 216.512H287.262L279.486 238.656H276.478L278.91 232.224ZM289.949 216.512H292.829V218.176C293.064 216.853 294.824 216.192 298.109 216.192C300.072 216.192 301.554 216.608 302.557 217.44C303.56 218.251 304.061 219.296 304.061 220.576V226.944C304.061 227.861 303.922 228.661 303.645 229.344C303.389 230.027 303.048 230.56 302.621 230.944C302.237 231.307 301.704 231.595 301.021 231.808C300.36 232.021 299.698 232.16 299.037 232.224C298.44 232.288 297.714 232.32 296.861 232.32C295.922 232.32 295.058 232.213 294.269 232C293.501 231.765 293.021 231.435 292.829 231.008V238.336H289.949V216.512ZM296.925 230.368C298.034 230.368 298.877 230.293 299.453 230.144C300.05 229.973 300.477 229.675 300.733 229.248C300.989 228.821 301.117 228.171 301.117 227.296V221.6C301.117 220.64 300.989 219.925 300.733 219.456C300.477 218.987 300.05 218.677 299.453 218.528C298.877 218.357 298.024 218.272 296.893 218.272C295.762 218.272 294.898 218.357 294.301 218.528C293.725 218.677 293.309 218.987 293.053 219.456C292.797 219.925 292.669 220.64 292.669 221.6V227.296C292.669 228.149 292.797 228.8 293.053 229.248C293.33 229.675 293.768 229.973 294.365 230.144C294.962 230.293 295.816 230.368 296.925 230.368ZM314.72 232.32C313.654 232.32 312.875 232.299 312.384 232.256C311.915 232.213 311.371 232.107 310.752 231.936C310.091 231.765 309.579 231.509 309.216 231.168C308.854 230.827 308.544 230.325 308.288 229.664C308.032 229.024 307.904 228.224 307.904 227.264V221.568C307.904 219.84 308.235 218.603 308.896 217.856C309.259 217.429 309.622 217.109 309.984 216.896C310.368 216.661 310.859 216.501 311.456 216.416C312.054 216.331 312.587 216.277 313.056 216.256C313.526 216.213 314.187 216.192 315.04 216.192C316.512 216.192 317.984 216.352 319.456 216.672V218.784C317.75 218.357 316.16 218.144 314.688 218.144C313.579 218.144 312.758 218.229 312.224 218.4C311.712 218.549 311.35 218.837 311.136 219.264C310.944 219.669 310.848 220.299 310.848 221.152V227.488C310.848 228.277 310.955 228.864 311.168 229.248C311.403 229.632 311.808 229.909 312.384 230.08C312.982 230.229 313.856 230.304 315.008 230.304C316.566 230.304 318.123 230.101 319.68 229.696V231.872C318.23 232.171 316.576 232.32 314.72 232.32ZM323.324 216.512H326.268V222.112H329.276C330.599 222.112 331.644 222.208 332.412 222.4C333.201 222.592 333.777 222.933 334.14 223.424C334.503 223.893 334.684 224.565 334.684 225.44V228.64C334.684 230.88 332.796 232 329.02 232H323.324V216.512ZM337.148 216.512H340.028V232H337.148V216.512ZM328.828 230.144C329.447 230.144 330.087 230.059 330.748 229.888C331.495 229.696 331.868 229.152 331.868 228.256V226.304C331.868 225.685 331.783 225.216 331.612 224.896C331.463 224.576 331.175 224.352 330.748 224.224C330.343 224.096 329.724 224.032 328.892 224.032H326.236V230.144H328.828ZM20.3911 259.512H27.1751C28.5618 259.512 29.6711 259.597 30.5031 259.768C31.3351 259.917 31.9431 260.184 32.3271 260.568C32.6898 260.931 32.9245 261.304 33.0311 261.688C33.1378 262.072 33.1911 262.605 33.1911 263.288V263.832C33.1911 264.664 32.9778 265.283 32.5511 265.688C32.1245 266.093 31.4098 266.403 30.4071 266.616V266.744C32.8818 267.171 34.1191 268.248 34.1191 269.976V270.904C34.1191 271.949 33.9058 272.771 33.4791 273.368C33.0738 273.944 32.3911 274.36 31.4311 274.616C30.4711 274.872 29.1271 275 27.3991 275H20.3911V259.512ZM27.4311 266.04C28.2845 266.04 28.9245 265.976 29.3511 265.848C29.7778 265.699 30.0658 265.475 30.2151 265.176C30.3645 264.856 30.4391 264.376 30.4391 263.736V263.544C30.4391 262.968 30.3538 262.541 30.1831 262.264C30.0338 261.987 29.7351 261.795 29.2871 261.688C28.8605 261.56 28.2098 261.496 27.3351 261.496H23.2711V266.04H27.4311ZM27.5591 272.92C28.5618 272.92 29.3191 272.856 29.8311 272.728C30.3431 272.6 30.6951 272.397 30.8871 272.12C31.0791 271.821 31.1751 271.384 31.1751 270.808V269.784C31.1751 269.251 30.9511 268.803 30.5031 268.44C30.0338 268.099 29.1058 267.928 27.7191 267.928H23.2711V272.92H27.5591ZM45.0709 275.32C40.3349 275.32 37.9669 273.741 37.9669 270.584V264.472C37.9669 262.595 38.5002 261.251 39.5669 260.44C40.6549 259.608 42.4042 259.192 44.8149 259.192C47.0975 259.192 48.7402 259.587 49.7429 260.376C50.7669 261.165 51.2789 262.531 51.2789 264.472V267.896H40.8789V270.232C40.8789 271.299 41.2522 272.067 41.9989 272.536C42.7455 273.005 43.8975 273.24 45.4549 273.24C46.9269 273.24 48.6655 272.984 50.6709 272.472V274.68C48.7082 275.107 46.8415 275.32 45.0709 275.32ZM48.3989 266.008V263.576C48.3989 262.637 48.1109 261.997 47.5349 261.656C46.9802 261.293 46.0202 261.112 44.6549 261.112C43.3322 261.112 42.3722 261.293 41.7749 261.656C41.1775 261.997 40.8789 262.637 40.8789 263.576V266.008H48.3989ZM62.4199 275.32C60.4999 275.32 59.0492 275.139 58.0679 274.776C57.0865 274.413 56.4039 273.784 56.0199 272.888C55.6359 271.971 55.4439 270.627 55.4439 268.856V262.616C55.4439 260.355 56.1052 258.531 57.4279 257.144C58.7719 255.736 60.8519 254.68 63.6679 253.976C65.9505 253.336 67.6679 252.792 68.8199 252.344V255.064C67.1772 255.661 65.1932 256.269 62.8679 256.888C61.5665 257.144 60.5532 257.453 59.8279 257.816C59.1025 258.179 58.5905 258.616 58.2919 259.128C58.0145 259.619 57.8865 260.237 57.9079 260.984V263C58.3985 262.061 59.1025 261.411 60.0199 261.048C60.9372 260.664 62.1212 260.472 63.5719 260.472C65.5985 260.472 67.0812 260.888 68.0199 261.72C68.9799 262.531 69.4599 263.757 69.4599 265.4V270.008C69.4599 271.395 69.2039 272.472 68.6919 273.24C68.1799 274.008 67.4119 274.552 66.3879 274.872C65.3852 275.171 64.0625 275.32 62.4199 275.32ZM62.4839 273.432C63.6145 273.432 64.4572 273.357 65.0119 273.208C65.5879 273.037 65.9932 272.728 66.2279 272.28C66.4839 271.811 66.6119 271.107 66.6119 270.168V265.432C66.6119 264.707 66.5052 264.152 66.2919 263.768C66.0785 263.363 65.7052 263.075 65.1719 262.904C64.6385 262.733 63.8812 262.648 62.8999 262.648C61.3852 262.648 60.2225 262.861 59.4119 263.288C58.6012 263.715 58.2065 264.333 58.2279 265.144L58.2919 270.168C58.3132 271.107 58.4412 271.811 58.6759 272.28C58.9319 272.728 59.3479 273.037 59.9239 273.208C60.4999 273.357 61.3532 273.432 62.4839 273.432ZM81.4224 259.512H94.5104V275H91.6304V261.624H84.3024V275H81.4224V259.512ZM99.6991 259.512H102.579V261.176C102.814 259.853 104.574 259.192 107.859 259.192C109.822 259.192 111.304 259.608 112.307 260.44C113.31 261.251 113.811 262.296 113.811 263.576V269.944C113.811 270.861 113.672 271.661 113.395 272.344C113.139 273.027 112.798 273.56 112.371 273.944C111.987 274.307 111.454 274.595 110.771 274.808C110.11 275.021 109.448 275.16 108.787 275.224C108.19 275.288 107.464 275.32 106.611 275.32C105.672 275.32 104.808 275.213 104.019 275C103.251 274.765 102.771 274.435 102.579 274.008V281.336H99.6991V259.512ZM106.675 273.368C107.784 273.368 108.627 273.293 109.203 273.144C109.8 272.973 110.227 272.675 110.483 272.248C110.739 271.821 110.867 271.171 110.867 270.296V264.6C110.867 263.64 110.739 262.925 110.483 262.456C110.227 261.987 109.8 261.677 109.203 261.528C108.627 261.357 107.774 261.272 106.643 261.272C105.512 261.272 104.648 261.357 104.051 261.528C103.475 261.677 103.059 261.987 102.803 262.456C102.547 262.925 102.419 263.64 102.419 264.6V270.296C102.419 271.149 102.547 271.8 102.803 272.248C103.08 272.675 103.518 272.973 104.115 273.144C104.712 273.293 105.566 273.368 106.675 273.368ZM124.79 275.32C123.425 275.32 122.401 275.267 121.718 275.16C121.036 275.075 120.353 274.872 119.67 274.552C118.966 274.232 118.454 273.72 118.134 273.016C117.814 272.291 117.654 271.32 117.654 270.104V264.728C117.654 263.768 117.772 262.925 118.006 262.2C118.241 261.475 118.55 260.909 118.934 260.504C119.254 260.141 119.734 259.864 120.374 259.672C121.036 259.459 121.708 259.32 122.39 259.256C123.158 259.213 123.958 259.192 124.79 259.192C125.9 259.192 126.732 259.224 127.286 259.288C127.862 259.331 128.47 259.437 129.11 259.608C129.772 259.8 130.284 260.088 130.646 260.472C131.009 260.856 131.318 261.411 131.574 262.136C131.809 262.883 131.926 263.747 131.926 264.728V270.104C131.926 271.917 131.51 273.24 130.678 274.072C130.337 274.413 129.846 274.68 129.206 274.872C128.566 275.064 127.905 275.192 127.222 275.256C126.412 275.299 125.601 275.32 124.79 275.32ZM124.79 273.432C125.686 273.432 126.337 273.411 126.742 273.368C127.148 273.325 127.542 273.208 127.926 273.016C128.31 272.845 128.577 272.568 128.726 272.184C128.897 271.779 128.982 271.224 128.982 270.52V264.248C128.982 263.288 128.865 262.595 128.63 262.168C128.396 261.72 127.99 261.432 127.414 261.304C126.86 261.155 125.985 261.08 124.79 261.08C123.596 261.08 122.71 261.155 122.134 261.304C121.58 261.432 121.185 261.72 120.95 262.168C120.716 262.595 120.598 263.288 120.598 264.248V270.52C120.598 271.224 120.673 271.779 120.822 272.184C120.993 272.568 121.27 272.845 121.654 273.016C122.038 273.208 122.433 273.325 122.838 273.368C123.244 273.411 123.894 273.432 124.79 273.432ZM136.61 259.512H146.722V261.624H139.49V275H136.61V259.512ZM149.855 259.512H152.735V261.176C152.97 259.853 154.73 259.192 158.015 259.192C159.978 259.192 161.461 259.608 162.463 260.44C163.466 261.251 163.967 262.296 163.967 263.576V269.944C163.967 270.861 163.829 271.661 163.551 272.344C163.295 273.027 162.954 273.56 162.527 273.944C162.143 274.307 161.61 274.595 160.927 274.808C160.266 275.021 159.605 275.16 158.943 275.224C158.346 275.288 157.621 275.32 156.767 275.32C155.829 275.32 154.965 275.213 154.175 275C153.407 274.765 152.927 274.435 152.735 274.008V281.336H149.855V259.512ZM156.831 273.368C157.941 273.368 158.783 273.293 159.359 273.144C159.957 272.973 160.383 272.675 160.639 272.248C160.895 271.821 161.023 271.171 161.023 270.296V264.6C161.023 263.64 160.895 262.925 160.639 262.456C160.383 261.987 159.957 261.677 159.359 261.528C158.783 261.357 157.93 261.272 156.799 261.272C155.669 261.272 154.805 261.357 154.207 261.528C153.631 261.677 153.215 261.987 152.959 262.456C152.703 262.925 152.575 263.64 152.575 264.6V270.296C152.575 271.149 152.703 271.8 152.959 272.248C153.237 272.675 153.674 272.973 154.271 273.144C154.869 273.293 155.722 273.368 156.831 273.368ZM173.155 275.32C171.683 275.32 170.541 275.181 169.731 274.904C168.941 274.627 168.365 274.136 168.003 273.432C167.661 272.728 167.491 271.715 167.491 270.392C167.491 269.219 167.651 268.312 167.971 267.672C168.312 267.011 168.877 266.541 169.667 266.264C170.477 265.987 171.619 265.848 173.091 265.848H177.731V263.384C177.731 262.808 177.613 262.371 177.379 262.072C177.165 261.752 176.792 261.528 176.259 261.4C175.747 261.272 174.989 261.208 173.987 261.208C172.387 261.208 170.616 261.336 168.675 261.592V259.48C170.787 259.288 172.696 259.192 174.403 259.192C176.195 259.192 177.517 259.331 178.371 259.608C179.224 259.864 179.811 260.323 180.131 260.984C180.451 261.645 180.611 262.669 180.611 264.056V275H177.827V273.528C177.592 274.723 176.035 275.32 173.155 275.32ZM173.635 273.432C174.68 273.432 175.565 273.357 176.291 273.208C177.251 273.016 177.731 272.568 177.731 271.864V267.64H173.283C172.365 267.64 171.704 267.715 171.299 267.864C170.893 267.992 170.627 268.248 170.499 268.632C170.371 269.016 170.307 269.635 170.307 270.488C170.307 271.256 170.381 271.853 170.531 272.28C170.68 272.685 170.947 272.984 171.331 273.176C171.715 273.347 172.291 273.432 173.059 273.432H173.635ZM185.797 259.512H190.437L195.141 272.12H195.269L199.653 259.512H204.133V275H201.477V262.136H201.317L196.549 275H193.637L188.677 262.136H188.517V275H185.797V259.512ZM209.516 259.512H214.156L218.86 272.12H218.988L223.372 259.512H227.852V275H225.196V262.136H225.036L220.268 275H217.356L212.396 262.136H212.236V275H209.516V259.512ZM246.867 259.512V275H243.987V263.576L235.923 275H233.043V259.512H235.923V271.32L244.147 259.512H246.867ZM251.855 259.512H254.735V261.176C254.97 259.853 256.73 259.192 260.015 259.192C261.978 259.192 263.461 259.608 264.463 260.44C265.466 261.251 265.967 262.296 265.967 263.576V269.944C265.967 270.861 265.829 271.661 265.551 272.344C265.295 273.027 264.954 273.56 264.527 273.944C264.143 274.307 263.61 274.595 262.927 274.808C262.266 275.021 261.605 275.16 260.943 275.224C260.346 275.288 259.621 275.32 258.767 275.32C257.829 275.32 256.965 275.213 256.175 275C255.407 274.765 254.927 274.435 254.735 274.008V281.336H251.855V259.512ZM258.831 273.368C259.941 273.368 260.783 273.293 261.359 273.144C261.957 272.973 262.383 272.675 262.639 272.248C262.895 271.821 263.023 271.171 263.023 270.296V264.6C263.023 263.64 262.895 262.925 262.639 262.456C262.383 261.987 261.957 261.677 261.359 261.528C260.783 261.357 259.93 261.272 258.799 261.272C257.669 261.272 256.805 261.357 256.207 261.528C255.631 261.677 255.215 261.987 254.959 262.456C254.703 262.925 254.575 263.64 254.575 264.6V270.296C254.575 271.149 254.703 271.8 254.959 272.248C255.237 272.675 255.674 272.973 256.271 273.144C256.869 273.293 257.722 273.368 258.831 273.368ZM276.947 275.32C275.581 275.32 274.557 275.267 273.875 275.16C273.192 275.075 272.509 274.872 271.827 274.552C271.123 274.232 270.611 273.72 270.291 273.016C269.971 272.291 269.811 271.32 269.811 270.104V264.728C269.811 263.768 269.928 262.925 270.163 262.2C270.397 261.475 270.707 260.909 271.091 260.504C271.411 260.141 271.891 259.864 272.531 259.672C273.192 259.459 273.864 259.32 274.547 259.256C275.315 259.213 276.115 259.192 276.947 259.192C278.056 259.192 278.888 259.224 279.443 259.288C280.019 259.331 280.627 259.437 281.267 259.608C281.928 259.8 282.44 260.088 282.803 260.472C283.165 260.856 283.475 261.411 283.731 262.136C283.965 262.883 284.083 263.747 284.083 264.728V270.104C284.083 271.917 283.667 273.24 282.835 274.072C282.493 274.413 282.003 274.68 281.363 274.872C280.723 275.064 280.061 275.192 279.379 275.256C278.568 275.299 277.757 275.32 276.947 275.32ZM276.947 273.432C277.843 273.432 278.493 273.411 278.899 273.368C279.304 273.325 279.699 273.208 280.083 273.016C280.467 272.845 280.733 272.568 280.883 272.184C281.053 271.779 281.139 271.224 281.139 270.52V264.248C281.139 263.288 281.021 262.595 280.787 262.168C280.552 261.72 280.147 261.432 279.571 261.304C279.016 261.155 278.141 261.08 276.947 261.08C275.752 261.08 274.867 261.155 274.291 261.304C273.736 261.432 273.341 261.72 273.107 262.168C272.872 262.595 272.755 263.288 272.755 264.248V270.52C272.755 271.224 272.829 271.779 272.979 272.184C273.149 272.568 273.427 272.845 273.811 273.016C274.195 273.208 274.589 273.325 274.995 273.368C275.4 273.411 276.051 273.432 276.947 273.432ZM288.766 259.512H295.55C296.937 259.512 298.046 259.597 298.878 259.768C299.71 259.917 300.318 260.184 300.702 260.568C301.065 260.931 301.299 261.304 301.406 261.688C301.513 262.072 301.566 262.605 301.566 263.288V263.832C301.566 264.664 301.353 265.283 300.926 265.688C300.499 266.093 299.785 266.403 298.782 266.616V266.744C301.257 267.171 302.494 268.248 302.494 269.976V270.904C302.494 271.949 302.281 272.771 301.854 273.368C301.449 273.944 300.766 274.36 299.806 274.616C298.846 274.872 297.502 275 295.774 275H288.766V259.512ZM295.806 266.04C296.659 266.04 297.299 265.976 297.726 265.848C298.153 265.699 298.441 265.475 298.59 265.176C298.739 264.856 298.814 264.376 298.814 263.736V263.544C298.814 262.968 298.729 262.541 298.558 262.264C298.409 261.987 298.11 261.795 297.662 261.688C297.235 261.56 296.585 261.496 295.71 261.496H291.646V266.04H295.806ZM295.934 272.92C296.937 272.92 297.694 272.856 298.206 272.728C298.718 272.6 299.07 272.397 299.262 272.12C299.454 271.821 299.55 271.384 299.55 270.808V269.784C299.55 269.251 299.326 268.803 298.878 268.44C298.409 268.099 297.481 267.928 296.094 267.928H291.646V272.92H295.934ZM311.686 275.32C310.214 275.32 309.073 275.181 308.262 274.904C307.473 274.627 306.897 274.136 306.534 273.432C306.193 272.728 306.022 271.715 306.022 270.392C306.022 269.219 306.182 268.312 306.502 267.672C306.843 267.011 307.409 266.541 308.198 266.264C309.009 265.987 310.15 265.848 311.622 265.848H316.262V263.384C316.262 262.808 316.145 262.371 315.91 262.072C315.697 261.752 315.323 261.528 314.79 261.4C314.278 261.272 313.521 261.208 312.518 261.208C310.918 261.208 309.147 261.336 307.206 261.592V259.48C309.318 259.288 311.227 259.192 312.934 259.192C314.726 259.192 316.049 259.331 316.902 259.608C317.755 259.864 318.342 260.323 318.662 260.984C318.982 261.645 319.142 262.669 319.142 264.056V275H316.358V273.528C316.123 274.723 314.566 275.32 311.686 275.32ZM312.166 273.432C313.211 273.432 314.097 273.357 314.822 273.208C315.782 273.016 316.262 272.568 316.262 271.864V267.64H311.814C310.897 267.64 310.235 267.715 309.83 267.864C309.425 267.992 309.158 268.248 309.03 268.632C308.902 269.016 308.838 269.635 308.838 270.488C308.838 271.256 308.913 271.853 309.062 272.28C309.211 272.685 309.478 272.984 309.862 273.176C310.246 273.347 310.822 273.432 311.59 273.432H312.166ZM324.137 259.512H327.017V265.944H334.633V259.512H337.513V275H334.633V268.056H327.017V275H324.137V259.512ZM356.336 259.512V275H353.456V263.576L345.392 275H342.512V259.512H345.392V271.32L353.616 259.512H356.336ZM373.804 259.512V275H370.924V269.432H367.532L363.596 275H359.788L364.524 268.888C363.308 268.696 362.423 268.301 361.868 267.704C361.335 267.085 361.068 266.243 361.068 265.176V263.512C361.068 262.403 361.217 261.571 361.516 261.016C361.836 260.461 362.369 260.077 363.116 259.864C363.863 259.629 364.972 259.512 366.444 259.512H373.804ZM370.924 261.496H366.732C365.943 261.496 365.356 261.56 364.972 261.688C364.588 261.816 364.321 262.04 364.172 262.36C364.044 262.68 363.98 263.149 363.98 263.768V264.856C363.98 265.688 364.172 266.328 364.556 266.776C364.961 267.224 365.569 267.448 366.38 267.448H370.924V261.496Z" fill="black"/>
<defs>
<filter id="filter0_d" x="117.194" y="34.6887" width="172.806" height="172.806" filterUnits="userSpaceOnUse" color-interpolation-filters="sRGB">
<feFlood flood-opacity="0" result="BackgroundImageFix"/>
<feColorMatrix in="SourceAlpha" type="matrix" values="0 0 0 0 0 0 0 0 0 0 0 0 0 0 0 0 0 0 127 0"/>
<feOffset dy="4"/>
<feGaussianBlur stdDeviation="2"/>
<feColorMatrix type="matrix" values="0 0 0 0 0 0 0 0 0 0 0 0 0 0 0 0 0 0 0.25 0"/>
<feBlend mode="normal" in2="BackgroundImageFix" result="effect1_dropShadow"/>
<feBlend mode="normal" in="SourceGraphic" in2="effect1_dropShadow" result="shape"/>
</filter>
</defs>
</svg>
